<svg xmlns="http://www.w3.org/2000/svg" width="125.023" height="336.299" viewBox="0 0 125.023 336.299"><path d="M73.578,0a39.41,39.41,0,0,1-2.8,14.606A38.3,38.3,0,0,1,62.8,26.989a36.736,36.736,0,0,1-11.935,8.274,35.562,35.562,0,0,1-28.157,0,36.736,36.736,0,0,1-11.935-8.274A38.3,38.3,0,0,1,2.8,14.606,39.41,39.41,0,0,1,0,0H73.578Z" transform="translate(0 223.236)" fill="#363637"/><path d="M0,0A35.9,35.9,0,0,1,14.117,2.9a36.837,36.837,0,0,1,11.967,8.252,38.172,38.172,0,0,1,8,12.349,39.119,39.119,0,0,1,2.808,14.567,39.119,39.119,0,0,1-2.808,14.567,38.171,38.171,0,0,1-8,12.349,36.836,36.836,0,0,1-11.967,8.252A35.9,35.9,0,0,1,0,76.131V0Z" transform="translate(0 259.961)" fill="#f22806"/><path d="M36.889,0A35.813,35.813,0,0,0,22.772,2.905,36.837,36.837,0,0,0,10.8,11.18a38.289,38.289,0,0,0-8,12.383A39.317,39.317,0,0,0,0,38.169H36.889Z" transform="translate(44.067 130.187)" fill="#f22806"/><path d="M0,38.169a35.813,35.813,0,0,0,14.117-2.905,36.837,36.837,0,0,0,11.967-8.274,38.289,38.289,0,0,0,8-12.383A39.317,39.317,0,0,0,36.889,0H0Z" transform="translate(0 176.196)" fill="#f84122"/><path d="M0,0A39.318,39.318,0,0,0,2.808,14.607a38.286,38.286,0,0,0,8,12.383,36.833,36.833,0,0,0,11.967,8.274,35.816,35.816,0,0,0,14.117,2.905V0Z" transform="translate(44.067 297.717)" fill="#f22806"/><path d="M0,19.084c0,10.54,8.258,19.084,18.444,19.084H36.889V0H18.444C8.258,0,0,8.544,0,19.084Z" transform="translate(0 130.187)" fill="#363637"/><path d="M0,19.084C0,8.544,8.258,0,18.444,0H36.889V38.169H18.444C8.258,38.169,0,29.624,0,19.084Z" transform="translate(44.067 175.989)" fill="#f84122"/><ellipse cx="14.656" cy="14.657" rx="14.656" ry="14.657" transform="translate(51.644 260.975)" fill="#f84122"/><path d="M0,38.169a17.729,17.729,0,0,0,7.02-1.453,18.316,18.316,0,0,0,5.951-4.137,19.154,19.154,0,0,0,3.977-6.191,19.754,19.754,0,0,0,1.4-7.3,19.754,19.754,0,0,0-1.4-7.3A19.154,19.154,0,0,0,12.972,5.59,18.315,18.315,0,0,0,7.02,1.453,17.729,17.729,0,0,0,0,0Z" transform="translate(88.134 130.599)" fill="#f22806"/><path d="M0,0V76.131a35.9,35.9,0,0,0,14.117-2.9,36.838,36.838,0,0,0,11.968-8.252,38.171,38.171,0,0,0,8-12.349,39.122,39.122,0,0,0,2.808-14.567A39.122,39.122,0,0,0,34.081,23.5a38.17,38.17,0,0,0-8-12.349A36.837,36.837,0,0,0,14.117,2.9,35.9,35.9,0,0,0,0,0Z" transform="translate(88.134 214.571)" fill="#363637"/><path d="M36.889,19.084C36.889,8.544,28.631,0,18.444,0H0V38.169H18.444C28.631,38.169,36.889,29.624,36.889,19.084Z" transform="translate(88.134 298.13)" fill="#f84122"/><path d="M14.656,30.329A14.917,14.917,0,0,0,29.312,15.164,14.917,14.917,0,0,0,14.656,0,14.917,14.917,0,0,0,0,15.164,14.917,14.917,0,0,0,14.656,30.329Z" transform="translate(88.134 176.196)" fill="#363637"/><path d="M0,76.131a35.9,35.9,0,0,0,14.117-2.9,36.839,36.839,0,0,0,11.967-8.252,38.174,38.174,0,0,0,8-12.349,39.117,39.117,0,0,0,2.808-14.567A39.117,39.117,0,0,0,34.081,23.5a38.174,38.174,0,0,0-8-12.349A36.84,36.84,0,0,0,14.117,2.9,35.9,35.9,0,0,0,0,0Z" transform="translate(80.956 45.802)" fill="#f22806"/><path d="M36.889,19.084C36.889,8.544,28.631,0,18.444,0H0V38.169H18.444C28.631,38.169,36.889,29.624,36.889,19.084Z" transform="translate(0 83.765)" fill="#f22806"/><path d="M14.656,30.329A14.917,14.917,0,0,0,29.312,15.164,14.917,14.917,0,0,0,14.656,0,14.917,14.917,0,0,0,0,15.164,14.917,14.917,0,0,0,14.656,30.329Z" transform="translate(44.067 91.605)" fill="#f84122"/><path d="M0,38.169H36.889V0A35.814,35.814,0,0,0,22.772,2.905,36.835,36.835,0,0,0,10.8,11.18a38.286,38.286,0,0,0-8,12.383A39.321,39.321,0,0,0,0,38.169Z" transform="translate(36.889 45.802)" fill="#363637"/><path d="M0,0V76.131a35.9,35.9,0,0,0,14.117-2.9,36.838,36.838,0,0,0,11.968-8.252,38.171,38.171,0,0,0,8-12.349,39.122,39.122,0,0,0,2.808-14.567A39.122,39.122,0,0,0,34.081,23.5a38.17,38.17,0,0,0-8-12.349A36.837,36.837,0,0,0,14.117,2.9,35.9,35.9,0,0,0,0,0Z" fill="#f22806"/></svg>