<svg xmlns="http://www.w3.org/2000/svg" width="299.853" height="129.049" viewBox="0 0 299.853 129.049"><g transform="translate(-1620.147 -940.951)"><path d="M75.948,0a40.679,40.679,0,0,1-2.891,15.077,39.534,39.534,0,0,1-8.232,12.782A37.919,37.919,0,0,1,52.506,36.4a36.707,36.707,0,0,1-29.064,0,37.919,37.919,0,0,1-12.319-8.541A39.534,39.534,0,0,1,2.891,15.077,40.679,40.679,0,0,1,0,0H75.948Z" transform="translate(1803.296 1070) rotate(-90)" fill="#262626"/><path d="M38.077,0A36.966,36.966,0,0,0,23.506,3,38.024,38.024,0,0,0,11.153,11.54,39.522,39.522,0,0,0,2.9,24.321,40.583,40.583,0,0,0,0,39.4H38.077Z" transform="translate(1707.249 1024.514) rotate(-90)" fill="#f22806"/><path d="M0,0A40.584,40.584,0,0,0,2.9,15.077a39.519,39.519,0,0,0,8.254,12.782A38.02,38.02,0,0,0,23.506,36.4a36.97,36.97,0,0,0,14.571,3V0Z" transform="translate(1880.176 1024.514) rotate(-90)" fill="#f22806"/><path d="M0,19.7C0,8.82,8.524,0,19.038,0H38.077V39.4H19.038C8.524,39.4,0,30.579,0,19.7Z" transform="translate(1754.527 1024.514) rotate(-90)" fill="#f84122"/><ellipse cx="15.128" cy="15.129" rx="15.128" ry="15.129" transform="translate(1842.25 1016.692) rotate(-90)" fill="#f84122"/><path d="M0,39.4a18.3,18.3,0,0,0,7.246-1.5,18.906,18.906,0,0,0,6.143-4.27,19.771,19.771,0,0,0,4.1-6.391A20.391,20.391,0,0,0,18.935,19.7a20.391,20.391,0,0,0-1.441-7.539,19.771,19.771,0,0,0-4.1-6.391A18.905,18.905,0,0,0,7.246,1.5,18.3,18.3,0,0,0,0,0Z" transform="translate(1707.675 979.027) rotate(-90)" fill="#f22806"/><path d="M0,0V78.584a37.054,37.054,0,0,0,14.571-2.991,38.024,38.024,0,0,0,12.353-8.518,39.4,39.4,0,0,0,8.254-12.747,40.382,40.382,0,0,0,2.9-15.036,40.382,40.382,0,0,0-2.9-15.036,39.4,39.4,0,0,0-8.254-12.747A38.023,38.023,0,0,0,14.571,2.991,37.054,37.054,0,0,0,0,0Z" transform="translate(1794.351 979.027) rotate(-90)" fill="#262626"/><path d="M38.077,19.7C38.077,8.82,29.553,0,19.038,0H0V39.4H19.038C29.553,39.4,38.077,30.579,38.077,19.7Z" transform="translate(1880.602 979.027) rotate(-90)" fill="#f84122"/><path d="M15.128,31.306A15.4,15.4,0,0,0,30.256,15.653,15.4,15.4,0,0,0,15.128,0,15.4,15.4,0,0,0,0,15.653,15.4,15.4,0,0,0,15.128,31.306Z" transform="translate(1754.74 979.027) rotate(-90)" fill="#262626"/><path d="M0,78.584a37.052,37.052,0,0,0,14.571-2.991,38.026,38.026,0,0,0,12.353-8.518,39.4,39.4,0,0,0,8.254-12.747,40.377,40.377,0,0,0,2.9-15.036,40.377,40.377,0,0,0-2.9-15.036,39.4,39.4,0,0,0-8.254-12.747A38.026,38.026,0,0,0,14.571,2.991,37.052,37.052,0,0,0,0,0Z" transform="translate(1620.147 986.437) rotate(-90)" fill="#f22806"/><path d="M15.128,31.306A15.4,15.4,0,0,0,30.256,15.653,15.4,15.4,0,0,0,15.128,0,15.4,15.4,0,0,0,0,15.653,15.4,15.4,0,0,0,15.128,31.306Z" transform="translate(1667.425 1024.514) rotate(-90)" fill="#f22806"/><path d="M0,39.4H38.077V0A36.967,36.967,0,0,0,23.505,3,38.022,38.022,0,0,0,11.152,11.54,39.519,39.519,0,0,0,2.9,24.321,40.588,40.588,0,0,0,0,39.4Z" transform="translate(1620.147 1031.923) rotate(-90)" fill="#262626"/></g></svg>